<svg xmlns="http://www.w3.org/2000/svg" xmlns:xlink="http://www.w3.org/1999/xlink" width="59.546" height="59.76" viewBox="0 0 59.546 59.76">
  <defs>
    <clipPath id="clip-path">
      <rect id="Rectangle_3" data-name="Rectangle 3" width="58.546" height="58.471" fill="none"/>
    </clipPath>
  </defs>
  <g id="Group_21294" data-name="Group 21294" transform="translate(0.5 0.5)">
    <path id="Path_1" data-name="Path 1" d="M0,0V22.74L29.276,58.471l29.27-35.793V0Z" transform="translate(0 0)" fill="#fff" stroke="#000" stroke-width="1"/>
    <path id="Path_2" data-name="Path 2" d="M12.144,78.909l21.349,26.024V78.909Z" transform="translate(-8.802 -57.189)" fill="#cb0017" fill-rule="evenodd"/>
    <path id="Path_3" data-name="Path 3" d="M144.347,78.912,123,104.936V78.912Z" transform="translate(-89.143 -57.191)" fill="#00111a" fill-rule="evenodd"/>
    <g id="Group_2" data-name="Group 2">
      <g id="Group_1" data-name="Group 1" clip-path="url(#clip-path)">
        <path id="Path_4" data-name="Path 4" d="M33.2,16.552h-3.76v2.223H33.2a.8.8,0,0,0,.545-.155,1.948,1.948,0,0,0,0-1.887.76.76,0,0,0-.545-.181M11.818,27.119H63.861V11.929H11.818Zm12.231-3.9c0,.464-.676,1.471-1.218,1.471H14.97V22.343h6.357c.438,0,.438-1.854,0-1.854H16.5c-.568,0-1.531-.519-1.531-1.138l-.027-3.467c0-1.684,1.4-1.5,2.57-1.5h6.537v2.042H17.693c-.6,0-.571,1.943,0,1.943H22c.91,0,2.076.231,2.076,1.551Zm12.187-4.343a1.941,1.941,0,0,1-.522,1.55,1.673,1.673,0,0,1-1.246.467H29.486v3.8H27.128V14.379l7.34,0a1.511,1.511,0,0,1,1.246.439,2.016,2.016,0,0,1,.522,1.265ZM48.47,16.371H41.517V18.75h5.191v2.172H41.517v3.793H39.365V14.353H48.47Zm12.305,5.907c0,1.261-.472,2.477-2.077,2.477H53.634c-1.785,0-2.072-.982-2.072-2.477l-.027-6.386c0-.827.727-1.575,2.078-1.575h5.16a1.816,1.816,0,0,1,1.95,1.575v2.143h-2.23c0-1.081-.133-1.548-.7-1.548H54.6a1.137,1.137,0,0,0-.912,1.06v4c0,.208.395.854.756.854h3.321c.494-.054.729-.546.7-1.447h2.313Z" transform="translate(-8.565 -8.646)" fill="#00111a" fill-rule="evenodd"/>
      </g>
    </g>
  </g>
</svg>
